<mxfile host="Electron" modified="2024-02-11T19:36:59.228Z" agent="Mozilla/5.0 (Windows NT 10.0; Win64; x64) AppleWebKit/537.36 (KHTML, like Gecko) draw.io/23.0.2 Chrome/120.0.6099.109 Electron/28.1.0 Safari/537.36" etag="R3YsKgQ8uCbR_gZntMlV" version="23.0.2" type="device">
  <diagram name="Страница — 1" id="2mKblcvAaN5j9x8WNpVv">
    <mxGraphModel dx="787" dy="1392" grid="1" gridSize="10" guides="1" tooltips="1" connect="1" arrows="1" fold="1" page="1" pageScale="1" pageWidth="827" pageHeight="1169" math="0" shadow="0">
      <root>
        <mxCell id="0" />
        <mxCell id="1" parent="0" />
        <mxCell id="hbjU9eNZVwthacx_wpEI-2" style="edgeStyle=orthogonalEdgeStyle;rounded=0;orthogonalLoop=1;jettySize=auto;html=1;exitX=0.5;exitY=1;exitDx=0;exitDy=0;" edge="1" parent="1" source="hbjU9eNZVwthacx_wpEI-1">
          <mxGeometry relative="1" as="geometry">
            <mxPoint x="240" y="130" as="targetPoint" />
          </mxGeometry>
        </mxCell>
        <mxCell id="hbjU9eNZVwthacx_wpEI-1" value="void funk_fibonachi(int n){" style="ellipse;whiteSpace=wrap;html=1;" vertex="1" parent="1">
          <mxGeometry x="160" y="60" width="160" height="40" as="geometry" />
        </mxCell>
        <mxCell id="hbjU9eNZVwthacx_wpEI-4" style="edgeStyle=orthogonalEdgeStyle;rounded=0;orthogonalLoop=1;jettySize=auto;html=1;exitX=0.5;exitY=1;exitDx=0;exitDy=0;entryX=0.5;entryY=0;entryDx=0;entryDy=0;" edge="1" parent="1" source="hbjU9eNZVwthacx_wpEI-3" target="hbjU9eNZVwthacx_wpEI-7">
          <mxGeometry relative="1" as="geometry">
            <mxPoint x="240.2941176470589" y="200" as="targetPoint" />
          </mxGeometry>
        </mxCell>
        <mxCell id="hbjU9eNZVwthacx_wpEI-3" value="cout &amp;lt;&amp;lt; &quot;Ряд Фибоначи до указанного элемента:&quot; &amp;lt;&amp;lt; endl;" style="shape=parallelogram;html=1;strokeWidth=2;perimeter=parallelogramPerimeter;whiteSpace=wrap;rounded=1;arcSize=12;size=0.07500000000000001;" vertex="1" parent="1">
          <mxGeometry x="140" y="130" width="200" height="40" as="geometry" />
        </mxCell>
        <mxCell id="hbjU9eNZVwthacx_wpEI-5" style="edgeStyle=orthogonalEdgeStyle;rounded=0;orthogonalLoop=1;jettySize=auto;html=1;exitX=0.5;exitY=1;exitDx=0;exitDy=0;" edge="1" source="hbjU9eNZVwthacx_wpEI-7" parent="1">
          <mxGeometry relative="1" as="geometry">
            <mxPoint x="240" y="280" as="targetPoint" />
          </mxGeometry>
        </mxCell>
        <mxCell id="hbjU9eNZVwthacx_wpEI-6" style="edgeStyle=orthogonalEdgeStyle;rounded=0;orthogonalLoop=1;jettySize=auto;html=1;exitX=1;exitY=0.5;exitDx=0;exitDy=0;" edge="1" source="hbjU9eNZVwthacx_wpEI-7" parent="1">
          <mxGeometry relative="1" as="geometry">
            <mxPoint x="380" y="280" as="targetPoint" />
            <Array as="points">
              <mxPoint x="380" y="220" />
            </Array>
          </mxGeometry>
        </mxCell>
        <mxCell id="hbjU9eNZVwthacx_wpEI-7" value="for (int i = 1; i &amp;lt;= n; ++i)" style="verticalLabelPosition=middle;verticalAlign=middle;html=1;shape=hexagon;perimeter=hexagonPerimeter2;arcSize=6;size=0.15;labelPosition=center;align=center;" vertex="1" parent="1">
          <mxGeometry x="140" y="200" width="200" height="40" as="geometry" />
        </mxCell>
        <mxCell id="hbjU9eNZVwthacx_wpEI-8" value="1" style="text;html=1;strokeColor=none;fillColor=none;align=center;verticalAlign=middle;whiteSpace=wrap;rounded=0;" vertex="1" parent="1">
          <mxGeometry x="210" y="240" width="30" height="30" as="geometry" />
        </mxCell>
        <mxCell id="hbjU9eNZVwthacx_wpEI-9" value="{" style="text;html=1;strokeColor=none;fillColor=none;align=center;verticalAlign=middle;whiteSpace=wrap;rounded=0;" vertex="1" parent="1">
          <mxGeometry x="240" y="240" width="30" height="30" as="geometry" />
        </mxCell>
        <mxCell id="hbjU9eNZVwthacx_wpEI-10" value="0" style="text;html=1;strokeColor=none;fillColor=none;align=center;verticalAlign=middle;whiteSpace=wrap;rounded=0;" vertex="1" parent="1">
          <mxGeometry x="340" y="190" width="30" height="30" as="geometry" />
        </mxCell>
        <mxCell id="hbjU9eNZVwthacx_wpEI-12" style="edgeStyle=orthogonalEdgeStyle;rounded=0;orthogonalLoop=1;jettySize=auto;html=1;exitX=0.5;exitY=1;exitDx=0;exitDy=0;entryX=0;entryY=0.5;entryDx=0;entryDy=0;" edge="1" parent="1" source="hbjU9eNZVwthacx_wpEI-11" target="hbjU9eNZVwthacx_wpEI-7">
          <mxGeometry relative="1" as="geometry" />
        </mxCell>
        <mxCell id="hbjU9eNZVwthacx_wpEI-11" value="cout &amp;lt;&amp;lt; rec_fib(i) &amp;lt;&amp;lt; &quot; &quot;;" style="shape=parallelogram;html=1;strokeWidth=2;perimeter=parallelogramPerimeter;whiteSpace=wrap;rounded=1;arcSize=12;size=0.16666666666666666;" vertex="1" parent="1">
          <mxGeometry x="150" y="280" width="180" height="40" as="geometry" />
        </mxCell>
        <mxCell id="hbjU9eNZVwthacx_wpEI-14" value="}" style="text;html=1;strokeColor=none;fillColor=none;align=center;verticalAlign=middle;whiteSpace=wrap;rounded=0;" vertex="1" parent="1">
          <mxGeometry x="240" y="320" width="30" height="30" as="geometry" />
        </mxCell>
        <mxCell id="hbjU9eNZVwthacx_wpEI-16" style="edgeStyle=orthogonalEdgeStyle;rounded=0;orthogonalLoop=1;jettySize=auto;html=1;exitX=0;exitY=0.5;exitDx=0;exitDy=0;" edge="1" parent="1" source="hbjU9eNZVwthacx_wpEI-15">
          <mxGeometry relative="1" as="geometry">
            <mxPoint x="240" y="110.35294117647072" as="targetPoint" />
          </mxGeometry>
        </mxCell>
        <mxCell id="hbjU9eNZVwthacx_wpEI-15" value="&lt;div&gt;int rec_fib(int n) {&lt;/div&gt;&lt;div&gt;if (n == 1) return 1;&lt;span style=&quot;&quot;&gt;&lt;/span&gt;&lt;/div&gt;&lt;div&gt;&lt;span style=&quot;&quot;&gt;&lt;span style=&quot;&quot;&gt;&lt;span style=&quot;white-space: pre;&quot;&gt;&amp;nbsp;&amp;nbsp;&amp;nbsp;&amp;nbsp;&lt;/span&gt;&lt;/span&gt;if (n == 2) return 1;&lt;/span&gt;&lt;/div&gt;&lt;div&gt;&lt;span style=&quot;&quot;&gt;&lt;span style=&quot;&quot;&gt;&lt;span style=&quot;white-space: pre;&quot;&gt;&amp;nbsp;&amp;nbsp;&amp;nbsp;&amp;nbsp;&lt;/span&gt;&lt;/span&gt;if (n &amp;gt; 2) return rec_fib(n - 1) + rec_fib(n - 2);&lt;/span&gt;&lt;/div&gt;&lt;div&gt;}&lt;/div&gt;" style="shape=process;whiteSpace=wrap;html=1;backgroundOutline=1;align=left;size=0.047619047619047616;" vertex="1" parent="1">
          <mxGeometry x="370" y="60" width="290" height="100" as="geometry" />
        </mxCell>
        <mxCell id="hbjU9eNZVwthacx_wpEI-17" value="}" style="ellipse;whiteSpace=wrap;html=1;" vertex="1" parent="1">
          <mxGeometry x="350" y="280" width="60" height="40" as="geometry" />
        </mxCell>
      </root>
    </mxGraphModel>
  </diagram>
</mxfile>
